<?xml version="1.0" encoding="UTF-8" standalone="no"?>
<svg
   width="80"
   height="80"
   version="1.1"
   id="svg3"
   sodipodi:docname="favicon.svg"
   inkscape:version="1.3.2 (091e20ef0f, 2023-11-25, custom)"
   xmlns:inkscape="http://www.inkscape.org/namespaces/inkscape"
   xmlns:sodipodi="http://sodipodi.sourceforge.net/DTD/sodipodi-0.dtd"
   xmlns:xlink="http://www.w3.org/1999/xlink"
   xmlns="http://www.w3.org/2000/svg"
   xmlns:svg="http://www.w3.org/2000/svg">
  <sodipodi:namedview
     id="namedview3"
     pagecolor="#ffffff"
     bordercolor="#666666"
     borderopacity="1.0"
     inkscape:showpageshadow="2"
     inkscape:pageopacity="0.0"
     inkscape:pagecheckerboard="0"
     inkscape:deskcolor="#d1d1d1"
     showguides="true"
     inkscape:zoom="3"
     inkscape:cx="40"
     inkscape:cy="40"
     inkscape:current-layer="svg3" />
  <defs
     id="defs2">
    <pattern
       inkscape:collect="always"
       xlink:href="#diagonalStripes"
       id="pattern5"
       patternTransform="matrix(1.1313708,1.1313708,-1.1313708,1.1313708,0,0)"
       x="0"
       y="0"
       preserveAspectRatio="xMidYMid" />
    <pattern
       id="diagonalStripes"
       patternUnits="userSpaceOnUse"
       width="20"
       height="20"
       patternTransform="rotate(45)"
       inkscape:label="diagonalStripes">
      <rect
         width="10"
         height="20"
         fill="#fafafa"
         id="rect1" />
      <rect
         x="10"
         width="10"
         height="20"
         fill="#f4f4f4"
         id="rect2" />
    </pattern>
  </defs>
  <circle
     style="fill:url(#pattern5);fill-opacity:1;stroke:none;stroke-width:1.00157;stroke-linecap:round;stroke-linejoin:round;paint-order:stroke markers fill"
     id="path5"
     cx="-40"
     cy="40"
     r="40"
     transform="scale(-1,1)" />
  <path
     style="font-size:85.3333px;line-height:1.25;font-family:Beleren2016;-inkscape-font-specification:Beleren2016;letter-spacing:0px;word-spacing:0px;white-space:pre"
     d="m 34.666669,39.588654 v 38.314651 h -0.34134 q -1.70666,-2.474666 -5.03466,-5.119998 -3.242665,-2.645332 -7.423996,-3.839998 V 19.279329 H 32.447999 V 18.937996 L 17.173341,9.551334 V 9.21 h 23.807988 q 4.864,0 8.87467,1.109333 4.01066,1.024 6.91199,3.157332 2.90133,2.133333 4.43733,5.290665 1.62134,3.157332 1.62134,7.423997 0,4.437331 -1.792,7.850663 -1.792,3.327999 -4.69333,5.631998 -2.90134,2.218665 -6.656,3.413332 -3.66933,1.109332 -7.50933,1.109332 h -0.34133 z m 3.92533,-1.365332 q 5.20533,0 7.85066,-2.730666 2.73067,-2.815999 2.73067,-8.78933 0,-5.97333 -2.73067,-8.703996 -2.73066,-2.815999 -9.21599,-2.815999 h -2.56 v 23.039991 z"
     id="text3"
     aria-label="P" />
</svg>
