<?xml version="1.0" encoding="UTF-8" standalone="no"?>
<!-- Created with Inkscape (http://www.inkscape.org/) -->

<svg
   width="121.70833mm"
   height="121.70833mm"
   viewBox="0 0 121.70833 121.70833"
   version="1.1"
   id="svg1"
   xmlns="http://www.w3.org/2000/svg"
   xmlns:svg="http://www.w3.org/2000/svg">
  <defs
     id="defs1" />
  <g
     id="layer1"
     transform="translate(-44.185417,-87.577083)">
    <g
       transform="matrix(0.26458333,0,0,0.26458333,28.310417,72.23125)"
       fill="none"
       fill-rule="evenodd"
       id="g5">
      <circle
         fill="#000000"
         opacity="0.09"
         cx="290"
         cy="288"
         r="230"
         id="circle1" />
      <path
         fill="#bc979d"
         d="m 279.508,112.547 -0.028,361.84 43.137,6.808 56.715,-13.23 28.54,-72.547 -28.044,-178.926 -31.887,-113.004"
         id="path1" />
      <path
         fill="#ae7f9c"
         d="m 281.57,100.633 -2.457,383.13 -67.972,-21.888 13.9,-355.852"
         id="path2" />
      <path
         d="m 207.05,113.316 v 344.032 c 0,0 -119.686,-62.848 -113.662,-174.305 C 99.41,171.586 207.05,113.316 207.05,113.316 Z"
         fill="#786076"
         id="path3" />
      <path
         d="m 237.375,107.21 -30.603,4.35 c 0,0 -20.682,10.42 -37.922,25.5 -75.19,167.948 108.332,115.1 -12.725,286.69 50.647,47.86 72.293,41.137 72.293,41.137 l 8.957,-357.676 z"
         fill="#947a92"
         id="path4" />
      <path
         d="m 343.058,89.985 c -109.36,-29.303 -221.77,35.597 -251.073,144.957 -29.303,109.36 35.597,221.77 144.957,251.073 109.36,29.303 221.77,-35.597 251.073,-144.957 29.303,-109.36 -35.597,-221.77 -144.957,-251.073 z m -86.716,361.965 0.276,0.71 c 1.172,3.187 3.562,5.776 6.644,7.2 3.082,1.422 6.603,1.562 9.788,0.387 l 48.355,-17.774 c 3.184,-1.175 6.706,-1.035 9.787,0.388 3.082,1.424 5.472,4.013 6.644,7.2 l 0.19,0.56 c 2.105,5.852 -0.304,12.37 -5.71,15.448 -93.23,22.17 -187.912,-30.724 -217.912,-121.736 -30,-91.012 14.67,-189.84 102.81,-227.453 5.144,0.502 9.544,3.91 11.32,8.762 2.578,6.977 10.317,10.55 17.3,7.99 l 15.73,-5.803 c 3.186,-1.176 6.707,-1.036 9.79,0.387 3.08,1.423 5.47,4.012 6.643,7.198 l 0.19,0.56 c 1.174,3.185 1.034,6.706 -0.39,9.788 -1.422,3.082 -4.01,5.472 -7.197,6.644 l -109.46,40.366 c -3.187,1.172 -5.777,3.562 -7.2,6.644 -1.422,3.082 -1.562,6.603 -0.388,9.788 l 0.19,0.56 c 1.172,3.186 3.562,5.775 6.643,7.198 3.082,1.423 6.603,1.563 9.788,0.388 l 80.06,-29.483 c 3.184,-1.174 6.705,-1.034 9.787,0.388 3.082,1.423 5.472,4.013 6.644,7.2 l 0.19,0.56 c 1.173,3.184 1.034,6.705 -0.39,9.787 -1.422,3.08 -4.01,5.47 -7.197,6.643 l -127.814,47.08 c -3.186,1.17 -5.776,3.56 -7.2,6.643 -1.42,3.082 -1.56,6.603 -0.387,9.788 l 0.19,0.56 c 1.172,3.186 3.562,5.775 6.643,7.198 3.08,1.423 6.602,1.563 9.787,0.388 L 297.72,226.4 c 3.184,-1.175 6.705,-1.036 9.787,0.387 3.082,1.423 5.472,4.012 6.644,7.198 l 0.467,1.27 c 1.174,3.186 1.035,6.707 -0.388,9.79 -1.424,3.08 -4.014,5.47 -7.2,6.643 l -113,41.54 c -3.187,1.172 -5.777,3.562 -7.2,6.644 -1.422,3.08 -1.562,6.603 -0.387,9.787 l 0.19,0.56 c 1.17,3.185 3.56,5.775 6.643,7.198 3.08,1.423 6.603,1.562 9.787,0.388 l 51.798,-19.06 c 3.186,-1.174 6.707,-1.034 9.79,0.39 3.08,1.422 5.47,4.01 6.643,7.197 l 0.19,0.56 c 1.174,3.185 1.034,6.706 -0.39,9.788 -1.422,3.083 -4.01,5.473 -7.197,6.644 l -89.085,32.754 c -3.185,1.17 -5.774,3.56 -7.197,6.643 -1.423,3.083 -1.562,6.604 -0.388,9.79 l 0.19,0.56 c 1.17,3.185 3.56,5.775 6.643,7.197 3.082,1.423 6.603,1.563 9.788,0.388 L 304.563,336.3 c 3.185,-1.173 6.706,-1.034 9.788,0.39 3.083,1.422 5.473,4.01 6.644,7.197 l 0.19,0.56 c 1.174,3.185 1.035,6.706 -0.388,9.788 -1.423,3.082 -4.013,5.472 -7.198,6.644 l -74.954,27.54 c -3.186,1.17 -5.776,3.56 -7.2,6.643 -1.422,3.082 -1.56,6.603 -0.387,9.788 l 0.19,0.56 c 1.172,3.187 3.562,5.777 6.643,7.2 3.082,1.422 6.603,1.562 9.788,0.387 l 94.147,-34.537 c 3.185,-1.175 6.706,-1.035 9.788,0.388 3.082,1.423 5.472,4.012 6.644,7.198 2.428,6.58 -0.893,13.887 -7.447,16.384 l -86.903,33.168 c -3.18,1.18 -5.764,3.574 -7.18,6.658 -1.414,3.083 -1.547,6.603 -0.367,9.784 l -0.018,-0.09 z"
         fill="#ffffff"
         id="path5" />
    </g>
  </g>
</svg>
